# xmcd
#
# Track frame offsets:
#	150
#	27749
#	50221
#	69382
#	92456
#	107777
#	125637
#	150689
#	175418
#	197541
#	222062
#	245962
#
# Disc length: 3572 seconds
# Revision: 0
# Processed by: cddbd v1.5.2PL0 Copyright (c) Steve Scherf et al.
# Submitted via: dBpowerAMP V12.0
#
DISCID=b20df20c
DTITLE=Various Artist - Life After Death
DYEAR=1997
DGENRE=Hip-Hop
TTITLE0=The Notorious B.I.G. (Feat. Bone Thugs-N-Harmony)(By Steven Jordan and Sean Combs) - Notorious Thugs
TTITLE1=The Notorious B.I.G. (Feat. 112)(By Kay Gee) - Miss U
TTITLE2=The Notorious B.I.G. (Feat. Lil' Kim)(By Steven Jordan and Sean Combs) - Another
TTITLE3=The Notorious B.I.G. (By Easy Mo Bee) - Going Back To Cali
TTITLE4=The Notorious B.I.G. (By DJ Premier) - Ten Crack Commandments
TTITLE5=The Notorious B.I.G. (By Steven Jordan and Sean Combs) - Playa Hater
TTITLE6=The Notorious B.I.G. (By Steven Jordan and Sean Combs) - Nasty Boy
TTITLE7=The Notorious B.I.G. (Feat. 112)(By Clark Kent) - Sky's The Limit
TTITLE8=The Notorious B.I.G. (Feat. Carl Thomas, Puff Daddy and Too Short)(By Deric Angelettie and Sean Combs) - The World Is Filled...
TTITLE9=The Notorious B.I.G. (Feat. DMC)(By Carlos Broady, Nashiem Myrick and Sean Combs) - My Downfall
TTITLE10=The Notorious B.I.G. (By RZA) - Long Kiss Goodnight
TTITLE11=The Notorious B.I.G. (By Sean Combs, Steven Jordan, DJ Enuff and Jiv Poss) - You're Nobody (Til Somebody Kills You)
EXTD=
EXTT0=
EXTT1=
EXTT2=
EXTT3=
EXTT4=
EXTT5=
EXTT6=
EXTT7=
EXTT8=
EXTT9=
EXTT10=
EXTT11=
PLAYORDER=
